<svg xmlns="http://www.w3.org/2000/svg" xmlns:xlink="http://www.w3.org/1999/xlink" width="500" zoomAndPan="magnify" viewBox="0 0 375 374.999991" height="500" preserveAspectRatio="xMidYMid meet" version="1.0"><defs><g/><clipPath id="d28bf13871"><path d="M 19 275 L 45 275 L 45 282.324219 L 19 282.324219 Z M 19 275 " clip-rule="nonzero"/></clipPath><clipPath id="c100b5f8a6"><path d="M 39 218.574219 L 45 218.574219 L 45 224 L 39 224 Z M 39 218.574219 " clip-rule="nonzero"/></clipPath><clipPath id="b027808792"><path d="M 49 218.574219 L 54 218.574219 L 54 224 L 49 224 Z M 49 218.574219 " clip-rule="nonzero"/></clipPath><clipPath id="dacee6fd91"><path d="M 232 4 L 239.71875 4 L 239.71875 14 L 232 14 Z M 232 4 " clip-rule="nonzero"/></clipPath><clipPath id="db7c1bd54e"><rect x="0" width="240" y="0" height="17"/></clipPath><clipPath id="9e01936a69"><path d="M 120 4 L 126.921875 4 L 126.921875 11 L 120 11 Z M 120 4 " clip-rule="nonzero"/></clipPath><clipPath id="957d0c3684"><rect x="0" width="127" y="0" height="14"/></clipPath></defs><rect x="-37.5" width="450" fill="#ffffff" y="-37.499999" height="449.999989" fill-opacity="1"/><rect x="-37.5" width="450" fill="#ffffff" y="-37.499999" height="449.999989" fill-opacity="1"/><g fill="#000000" fill-opacity="1"><g transform="translate(73.585247, 281.638165)"><g><path d="M 2.15625 -63 L 16.734375 -63 C 15.953125 -61.5625 15.425781 -60.117188 15.15625 -58.671875 C 14.894531 -57.234375 14.765625 -55.015625 14.765625 -52.015625 L 14.765625 -3.0625 C 18.960938 -3.0625 22.15625 -3.644531 24.34375 -4.8125 C 26.53125 -5.976562 28.117188 -7.835938 29.109375 -10.390625 C 30.097656 -12.941406 30.863281 -16.257812 31.40625 -20.34375 L 32.484375 -20.34375 L 32.484375 0 L 2.15625 0 C 3 -1.4375 3.539062 -2.875 3.78125 -4.3125 C 4.019531 -5.757812 4.140625 -7.984375 4.140625 -10.984375 L 4.140625 -52.015625 C 4.140625 -55.015625 4.019531 -57.234375 3.78125 -58.671875 C 3.539062 -60.117188 3 -61.5625 2.15625 -63 Z M 2.15625 -63 "/></g></g></g><g fill="#000000" fill-opacity="1"><g transform="translate(111.058656, 281.787507)"><g><path d="M 3.453125 0 C 4.847656 -2.394531 5.742188 -4.816406 6.140625 -7.265625 C 6.546875 -9.722656 6.75 -13.453125 6.75 -18.453125 L 6.75 -86.703125 C 6.75 -91.703125 6.546875 -95.398438 6.140625 -97.796875 C 5.742188 -100.203125 4.847656 -102.601562 3.453125 -105 L 27.75 -105 C 26.851562 -103.394531 26.15625 -101.84375 25.65625 -100.34375 C 25.15625 -98.84375 24.828125 -97.039062 24.671875 -94.9375 C 24.523438 -92.84375 24.453125 -90.097656 24.453125 -86.703125 L 24.453125 -18.453125 C 24.453125 -13.453125 24.648438 -9.722656 25.046875 -7.265625 C 25.453125 -4.816406 26.351562 -2.394531 27.75 0 Z M 3.453125 0 "/></g></g></g><g fill="#000000" fill-opacity="1"><g transform="translate(142.186225, 281.972309)"><g><path d="M 5.515625 0 C 7.660156 -3.675781 9.039062 -7.351562 9.65625 -11.03125 C 10.269531 -14.71875 10.578125 -20.394531 10.578125 -28.0625 L 10.578125 -132.9375 C 10.578125 -140.601562 10.269531 -146.273438 9.65625 -149.953125 C 9.039062 -153.640625 7.660156 -157.320312 5.515625 -161 L 83.03125 -161 L 83.03125 -109.015625 L 80.265625 -109.015625 C 80.265625 -116.992188 79.078125 -124.351562 76.703125 -131.09375 C 74.328125 -137.84375 70.644531 -143.328125 65.65625 -147.546875 C 60.675781 -151.765625 54.273438 -153.875 46.453125 -153.875 L 37.71875 -153.875 L 37.71875 -95.21875 L 41.625 -95.21875 C 44.84375 -95.21875 48.21875 -96.210938 51.75 -98.203125 C 55.28125 -100.203125 58.269531 -103.347656 60.71875 -107.640625 C 63.175781 -111.929688 64.40625 -117.453125 64.40625 -124.203125 L 67.15625 -124.203125 L 67.15625 -58.1875 L 64.40625 -58.1875 C 64.40625 -65.09375 63.175781 -70.648438 60.71875 -74.859375 C 58.269531 -79.078125 55.28125 -82.179688 51.75 -84.171875 C 48.21875 -86.171875 44.84375 -87.171875 41.625 -87.171875 L 37.71875 -87.171875 L 37.71875 -28.0625 C 37.71875 -20.394531 38.0625 -14.71875 38.75 -11.03125 C 39.445312 -7.351562 40.789062 -3.675781 42.78125 0 Z M 5.515625 0 "/></g></g></g><g fill="#000000" fill-opacity="1"><g transform="translate(192.888976, 281.855123)"><g><path d="M 5.28125 -156.421875 L 5.28125 -231 L 123.421875 -231 L 123.421875 -156.421875 L 119.453125 -156.421875 C 119.453125 -167.859375 118.351562 -178.414062 116.15625 -188.09375 C 113.957031 -197.78125 110.546875 -205.644531 105.921875 -211.6875 C 101.304688 -217.738281 95.476562 -220.765625 88.4375 -220.765625 L 83.8125 -221.09375 L 83.8125 -40.59375 C 83.8125 -29.59375 84.25 -21.394531 85.125 -16 C 86.007812 -10.613281 87.992188 -5.28125 91.078125 0 L 37.625 0 C 40.695312 -5.28125 42.671875 -10.613281 43.546875 -16 C 44.429688 -21.394531 44.875 -29.59375 44.875 -40.59375 L 44.875 -221.09375 L 39.9375 -220.765625 C 32.894531 -220.765625 27.0625 -217.738281 22.4375 -211.6875 C 17.820312 -205.644531 14.410156 -197.78125 12.203125 -188.09375 C 10.003906 -178.414062 8.90625 -167.859375 8.90625 -156.421875 Z M 5.28125 -156.421875 "/></g></g></g><path stroke-linecap="butt" transform="matrix(0.75, 0.000000000000000078, -0.000000000000000078, 0.75, -35.046724, 280.626133)" fill="none" stroke-linejoin="miter" d="M -0.000201015 1.99849 L 546.729002 1.99849 " stroke="#000000" stroke-width="4" stroke-opacity="1" stroke-miterlimit="4"/><path fill="#000000" d="M 21.242188 238.601562 C 21.09375 238.601562 20.945312 238.523438 20.832031 238.414062 L 10.367188 228.101562 C 10.257812 227.949219 10.179688 227.800781 10.179688 227.648438 L 10.179688 224.386719 C 10.179688 224.011719 10.480469 223.75 10.820312 223.75 C 11.15625 223.75 11.457031 224.011719 11.457031 224.386719 L 11.457031 227.386719 L 21.09375 236.949219 L 26.007812 227.5 L 26.007812 224.3125 C 26.007812 223.976562 26.269531 223.710938 26.605469 223.710938 C 26.945312 223.710938 27.242188 223.976562 27.242188 224.3125 L 27.242188 227.648438 C 27.242188 227.726562 27.207031 227.835938 27.167969 227.914062 L 21.804688 238.261719 C 21.730469 238.449219 21.542969 238.5625 21.355469 238.601562 C 21.320312 238.601562 21.28125 238.601562 21.242188 238.601562 Z M 21.242188 238.601562 " fill-opacity="1" fill-rule="evenodd"/><path fill="#000000" d="M 21.242188 238.601562 C 20.980469 238.601562 20.71875 238.414062 20.644531 238.148438 L 18.207031 228.625 C 18.207031 228.550781 18.207031 228.511719 18.207031 228.4375 L 18.207031 224.273438 C 18.207031 223.9375 18.46875 223.636719 18.804688 223.636719 C 19.179688 223.636719 19.445312 223.9375 19.445312 224.273438 L 19.445312 228.363281 L 21.84375 237.8125 C 21.957031 238.148438 21.730469 238.488281 21.429688 238.601562 C 21.355469 238.601562 21.320312 238.601562 21.242188 238.601562 Z M 21.242188 238.601562 " fill-opacity="1" fill-rule="evenodd"/><path fill="#000000" d="M 33.957031 243.0625 C 33.917969 243.0625 33.882812 243.0625 33.882812 243.0625 C 33.582031 243.0625 33.394531 242.835938 33.320312 242.574219 L 31.332031 232.414062 C 31.332031 232.375 31.332031 232.335938 31.332031 232.300781 L 31.332031 228.8125 C 31.332031 228.4375 31.59375 228.175781 31.929688 228.175781 C 32.269531 228.175781 32.570312 228.4375 32.570312 228.8125 L 32.570312 232.226562 L 34.179688 240.363281 L 37.707031 232.261719 L 37.707031 228.851562 C 37.707031 228.511719 38.007812 228.210938 38.34375 228.210938 C 38.679688 228.210938 38.945312 228.511719 38.945312 228.851562 L 38.945312 232.375 C 38.945312 232.488281 38.945312 232.5625 38.90625 232.636719 L 34.519531 242.6875 C 34.40625 242.949219 34.179688 243.0625 33.957031 243.0625 Z M 33.957031 243.0625 " fill-opacity="1" fill-rule="evenodd"/><path fill="#000000" d="M 46.332031 236.988281 C 46.070312 236.949219 45.882812 236.800781 45.769531 236.574219 L 41.605469 226.449219 C 41.570312 226.375 41.570312 226.300781 41.570312 226.226562 L 41.570312 222.699219 C 41.570312 222.363281 41.832031 222.0625 42.207031 222.0625 C 42.542969 222.0625 42.804688 222.363281 42.804688 222.699219 L 42.804688 226.113281 L 46.40625 234.851562 L 50.757812 225.960938 L 50.757812 222.625 C 50.757812 222.289062 51.054688 222.023438 51.394531 222.023438 C 51.730469 222.023438 51.992188 222.289062 51.992188 222.625 L 51.992188 226.113281 C 51.992188 226.226562 51.992188 226.300781 51.957031 226.414062 L 46.894531 236.613281 C 46.820312 236.835938 46.59375 236.988281 46.332031 236.988281 Z M 46.332031 236.988281 " fill-opacity="1" fill-rule="evenodd"/><path fill="#000000" d="M 31.667969 259.789062 C 31.519531 259.789062 31.367188 259.710938 31.257812 259.601562 L 20.832031 249.175781 C 20.71875 249.0625 20.644531 248.914062 20.644531 248.761719 L 20.644531 237.960938 C 20.644531 237.625 20.90625 237.363281 21.242188 237.363281 C 21.617188 237.363281 21.882812 237.625 21.882812 237.960938 L 21.882812 248.5 L 31.667969 258.289062 L 51.28125 239.164062 C 51.507812 238.9375 51.917969 238.9375 52.144531 239.164062 C 52.367188 239.425781 52.367188 239.800781 52.144531 240.0625 L 32.117188 259.601562 C 32.007812 259.75 31.820312 259.789062 31.667969 259.789062 Z M 31.667969 259.789062 " fill-opacity="1" fill-rule="evenodd"/><path fill="#000000" d="M 40.929688 250.75 C 40.742188 250.75 40.59375 250.675781 40.480469 250.5625 L 33.46875 242.875 C 33.242188 242.613281 33.28125 242.238281 33.507812 242.011719 C 33.769531 241.75 34.179688 241.789062 34.40625 242.050781 L 41.382812 249.699219 C 41.605469 249.960938 41.605469 250.375 41.34375 250.601562 C 41.230469 250.710938 41.082031 250.75 40.929688 250.75 Z M 40.929688 250.75 " fill-opacity="1" fill-rule="evenodd"/><path fill="#000000" d="M 49.480469 242.386719 C 49.257812 242.386719 49.070312 242.273438 48.957031 242.085938 L 45.804688 236.648438 C 45.65625 236.351562 45.730469 235.976562 46.03125 235.824219 C 46.332031 235.636719 46.707031 235.75 46.894531 236.050781 L 50.007812 241.449219 C 50.195312 241.75 50.082031 242.125 49.78125 242.3125 C 49.707031 242.386719 49.59375 242.386719 49.480469 242.386719 Z M 49.480469 242.386719 " fill-opacity="1" fill-rule="evenodd"/><path fill="#000000" d="M 31.667969 277.148438 C 31.332031 277.148438 31.070312 276.886719 31.070312 276.511719 L 31.070312 259.1875 C 31.070312 258.8125 31.332031 258.550781 31.667969 258.550781 C 32.007812 258.550781 32.304688 258.8125 32.304688 259.1875 L 32.304688 276.511719 C 32.304688 276.886719 32.007812 277.148438 31.667969 277.148438 Z M 31.667969 277.148438 " fill-opacity="1" fill-rule="evenodd"/><g clip-path="url(#d28bf13871)"><path fill="#000000" d="M 42.582031 282.324219 L 20.792969 282.324219 C 19.894531 282.324219 19.144531 281.613281 19.144531 280.710938 L 19.144531 277.5625 C 19.144531 276.625 19.894531 275.914062 20.792969 275.914062 L 42.582031 275.914062 C 43.480469 275.914062 44.195312 276.625 44.195312 277.5625 L 44.195312 280.710938 C 44.195312 281.613281 43.480469 282.324219 42.582031 282.324219 Z M 20.792969 277.148438 C 20.570312 277.148438 20.382812 277.335938 20.382812 277.5625 L 20.382812 280.710938 C 20.382812 280.898438 20.570312 281.085938 20.792969 281.085938 L 42.582031 281.085938 C 42.769531 281.085938 42.957031 280.898438 42.957031 280.710938 L 42.957031 277.5625 C 42.957031 277.335938 42.769531 277.148438 42.582031 277.148438 Z M 20.792969 277.148438 " fill-opacity="1" fill-rule="evenodd"/></g><path fill="#000000" d="M 10.820312 224.988281 C 9.542969 224.988281 8.492188 223.9375 8.492188 222.664062 C 8.492188 221.386719 9.542969 220.335938 10.820312 220.335938 C 12.09375 220.335938 13.144531 221.386719 13.144531 222.664062 C 13.144531 223.9375 12.09375 224.988281 10.820312 224.988281 Z M 10.820312 221.574219 C 10.21875 221.574219 9.730469 222.0625 9.730469 222.664062 C 9.730469 223.261719 10.21875 223.75 10.820312 223.75 C 11.417969 223.75 11.90625 223.261719 11.90625 222.664062 C 11.90625 222.0625 11.417969 221.574219 10.820312 221.574219 Z M 10.820312 221.574219 " fill-opacity="1" fill-rule="evenodd"/><path fill="#000000" d="M 18.804688 224.875 C 17.53125 224.875 16.480469 223.824219 16.480469 222.550781 C 16.480469 221.273438 17.53125 220.226562 18.804688 220.226562 C 20.117188 220.226562 21.167969 221.273438 21.167969 222.550781 C 21.167969 223.824219 20.117188 224.875 18.804688 224.875 Z M 18.804688 221.460938 C 18.242188 221.460938 17.757812 221.949219 17.757812 222.550781 C 17.757812 223.148438 18.242188 223.636719 18.804688 223.636719 C 19.40625 223.636719 19.894531 223.148438 19.894531 222.550781 C 19.894531 221.949219 19.40625 221.460938 18.804688 221.460938 Z M 18.804688 221.460938 " fill-opacity="1" fill-rule="evenodd"/><path fill="#000000" d="M 26.605469 224.949219 C 25.332031 224.949219 24.28125 223.898438 24.28125 222.625 C 24.28125 221.3125 25.332031 220.261719 26.605469 220.261719 C 27.917969 220.261719 28.929688 221.3125 28.929688 222.625 C 28.929688 223.898438 27.917969 224.949219 26.605469 224.949219 Z M 26.605469 221.539062 C 26.007812 221.539062 25.519531 222.023438 25.519531 222.625 C 25.519531 223.226562 26.007812 223.710938 26.605469 223.710938 C 27.207031 223.710938 27.695312 223.226562 27.695312 222.625 C 27.695312 222.023438 27.207031 221.539062 26.605469 221.539062 Z M 26.605469 221.539062 " fill-opacity="1" fill-rule="evenodd"/><path fill="#000000" d="M 31.929688 229.414062 C 30.65625 229.414062 29.605469 228.363281 29.605469 227.085938 C 29.605469 225.8125 30.65625 224.761719 31.929688 224.761719 C 33.242188 224.761719 34.257812 225.8125 34.257812 227.085938 C 34.257812 228.363281 33.242188 229.414062 31.929688 229.414062 Z M 31.929688 226 C 31.332031 226 30.84375 226.488281 30.84375 227.085938 C 30.84375 227.6875 31.332031 228.175781 31.929688 228.175781 C 32.53125 228.175781 33.019531 227.6875 33.019531 227.085938 C 33.019531 226.488281 32.53125 226 31.929688 226 Z M 31.929688 226 " fill-opacity="1" fill-rule="evenodd"/><path fill="#000000" d="M 38.34375 229.488281 C 37.03125 229.488281 36.019531 228.4375 36.019531 227.125 C 36.019531 225.851562 37.03125 224.800781 38.34375 224.800781 C 39.617188 224.800781 40.667969 225.851562 40.667969 227.125 C 40.667969 228.4375 39.617188 229.488281 38.34375 229.488281 Z M 38.34375 226.039062 C 37.742188 226.039062 37.257812 226.523438 37.257812 227.125 C 37.257812 227.726562 37.742188 228.210938 38.34375 228.210938 C 38.945312 228.210938 39.429688 227.726562 39.429688 227.125 C 39.429688 226.523438 38.945312 226.039062 38.34375 226.039062 Z M 38.34375 226.039062 " fill-opacity="1" fill-rule="evenodd"/><g clip-path="url(#c100b5f8a6)"><path fill="#000000" d="M 42.207031 223.300781 C 40.894531 223.300781 39.84375 222.25 39.84375 220.976562 C 39.84375 219.699219 40.894531 218.648438 42.207031 218.648438 C 43.480469 218.648438 44.53125 219.699219 44.53125 220.976562 C 44.53125 222.25 43.480469 223.300781 42.207031 223.300781 Z M 42.207031 219.886719 C 41.605469 219.886719 41.117188 220.375 41.117188 220.976562 C 41.117188 221.574219 41.605469 222.0625 42.207031 222.0625 C 42.804688 222.0625 43.292969 221.574219 43.292969 220.976562 C 43.292969 220.375 42.804688 219.886719 42.207031 219.886719 Z M 42.207031 219.886719 " fill-opacity="1" fill-rule="evenodd"/></g><g clip-path="url(#b027808792)"><path fill="#000000" d="M 51.394531 223.261719 C 50.117188 223.261719 49.070312 222.210938 49.070312 220.9375 C 49.070312 219.625 50.117188 218.574219 51.394531 218.574219 C 52.667969 218.574219 53.71875 219.625 53.71875 220.9375 C 53.71875 222.210938 52.667969 223.261719 51.394531 223.261719 Z M 51.394531 219.851562 C 50.792969 219.851562 50.304688 220.335938 50.304688 220.9375 C 50.304688 221.539062 50.792969 222.023438 51.394531 222.023438 C 51.992188 222.023438 52.480469 221.539062 52.480469 220.9375 C 52.480469 220.335938 51.992188 219.851562 51.394531 219.851562 Z M 51.394531 219.851562 " fill-opacity="1" fill-rule="evenodd"/></g><path fill="#000000" d="M 52.929688 240.738281 C 51.617188 240.738281 50.605469 239.6875 50.605469 238.414062 C 50.605469 237.136719 51.617188 236.085938 52.929688 236.085938 C 54.207031 236.085938 55.257812 237.136719 55.257812 238.414062 C 55.257812 239.6875 54.207031 240.738281 52.929688 240.738281 Z M 52.929688 237.324219 C 52.332031 237.324219 51.84375 237.8125 51.84375 238.414062 C 51.84375 239.011719 52.332031 239.5 52.929688 239.5 C 53.53125 239.5 54.019531 239.011719 54.019531 238.414062 C 54.019531 237.8125 53.53125 237.324219 52.929688 237.324219 Z M 52.929688 237.324219 " fill-opacity="1" fill-rule="evenodd"/><g transform="matrix(1, 0, 0, 1, 67, 283)"><g clip-path="url(#db7c1bd54e)"><g fill="#000000" fill-opacity="1"><g transform="translate(0.757137, 13.186604)"><g><path d="M 6.828125 -0.859375 L 6.828125 0 L 1.21875 0 L 1.21875 -8.421875 L 2.265625 -8.421875 L 2.265625 -0.859375 Z M 6.828125 -0.859375 "/></g></g></g><g fill="#000000" fill-opacity="1"><g transform="translate(6.990879, 13.186604)"><g><path d="M 6.828125 -0.859375 L 6.828125 0 L 1.21875 0 L 1.21875 -8.421875 L 6.703125 -8.421875 L 6.703125 -7.5625 L 2.265625 -7.5625 L 2.265625 -4.640625 L 6.328125 -4.640625 L 6.328125 -3.78125 L 2.265625 -3.78125 L 2.265625 -0.859375 Z M 6.828125 -0.859375 "/></g></g></g><g fill="#000000" fill-opacity="1"><g transform="translate(13.371007, 13.186604)"><g><path d="M 5.5625 -2.984375 L 2.46875 -2.984375 L 1.484375 0 L 0.359375 0 L 3.375 -8.421875 L 4.796875 -8.421875 L 7.703125 0 L 6.5625 0 Z M 2.765625 -3.828125 L 5.28125 -3.828125 L 4.0625 -7.59375 Z M 2.765625 -3.828125 "/></g></g></g><g fill="#000000" fill-opacity="1"><g transform="translate(20.38549, 13.186604)"><g><path d="M 6.765625 -2.203125 C 6.804688 -1.660156 6.863281 -1.210938 6.9375 -0.859375 C 7.019531 -0.515625 7.148438 -0.226562 7.328125 0 L 6.15625 0 C 6.039062 -0.269531 5.953125 -0.554688 5.890625 -0.859375 C 5.828125 -1.171875 5.769531 -1.585938 5.71875 -2.109375 C 5.664062 -2.546875 5.546875 -2.894531 5.359375 -3.15625 C 5.171875 -3.425781 4.867188 -3.578125 4.453125 -3.609375 C 4.359375 -3.617188 4.257812 -3.625 4.15625 -3.625 C 4.050781 -3.625 3.953125 -3.625 3.859375 -3.625 L 2.265625 -3.625 L 2.265625 0 L 1.21875 0 L 1.21875 -8.421875 L 3.984375 -8.421875 C 4.191406 -8.421875 4.378906 -8.414062 4.546875 -8.40625 C 4.710938 -8.40625 4.890625 -8.394531 5.078125 -8.375 C 5.679688 -8.289062 6.179688 -8.070312 6.578125 -7.71875 C 6.972656 -7.363281 7.171875 -6.832031 7.171875 -6.125 C 7.171875 -5.757812 7.097656 -5.441406 6.953125 -5.171875 C 6.816406 -4.898438 6.632812 -4.679688 6.40625 -4.515625 C 6.175781 -4.347656 5.929688 -4.222656 5.671875 -4.140625 C 6.015625 -3.984375 6.273438 -3.726562 6.453125 -3.375 C 6.628906 -3.019531 6.734375 -2.628906 6.765625 -2.203125 Z M 2.265625 -4.484375 L 3.875 -4.484375 C 4.0625 -4.484375 4.21875 -4.484375 4.34375 -4.484375 C 4.46875 -4.484375 4.585938 -4.488281 4.703125 -4.5 C 5.085938 -4.539062 5.40625 -4.6875 5.65625 -4.9375 C 5.914062 -5.195312 6.046875 -5.5625 6.046875 -6.03125 C 6.046875 -6.5 5.9375 -6.847656 5.71875 -7.078125 C 5.507812 -7.316406 5.207031 -7.460938 4.8125 -7.515625 C 4.613281 -7.546875 4.335938 -7.5625 3.984375 -7.5625 L 2.265625 -7.5625 Z M 2.265625 -4.484375 "/></g></g></g><g fill="#000000" fill-opacity="1"><g transform="translate(27.155987, 13.186604)"><g><path d="M 7.8125 0 L 6.203125 0 L 2.234375 -7.390625 C 2.242188 -6.898438 2.25 -6.367188 2.25 -5.796875 C 2.257812 -5.234375 2.265625 -4.703125 2.265625 -4.203125 L 2.265625 0 L 1.21875 0 L 1.21875 -8.421875 L 2.828125 -8.421875 L 6.796875 -1.03125 C 6.785156 -1.519531 6.773438 -2.046875 6.765625 -2.609375 C 6.765625 -3.179688 6.765625 -3.710938 6.765625 -4.203125 L 6.765625 -8.421875 L 7.78125 -8.421875 Z M 7.8125 0 "/></g></g></g><g fill="#000000" fill-opacity="1"><g transform="translate(35.146178, 13.186604)"><g/></g></g><g fill="#000000" fill-opacity="1"><g transform="translate(38.854739, 13.186604)"><g/></g></g><g fill="#000000" fill-opacity="1"><g transform="translate(40.709019, 13.186604)"><g/></g></g><g fill="#000000" fill-opacity="1"><g transform="translate(42.564045, 13.186604)"><g><path d="M 1.875 2.4375 L 1.171875 2.4375 L 1.171875 -9.765625 L 1.875 -9.765625 Z M 1.875 2.4375 "/></g></g></g><g fill="#000000" fill-opacity="1"><g transform="translate(44.835469, 13.186604)"><g/></g></g><g fill="#000000" fill-opacity="1"><g transform="translate(46.689749, 13.186604)"><g/></g></g><g fill="#000000" fill-opacity="1"><g transform="translate(48.54403, 13.186604)"><g/></g></g><g fill="#000000" fill-opacity="1"><g transform="translate(50.39831, 13.186604)"><g/></g></g><g fill="#000000" fill-opacity="1"><g transform="translate(52.253336, 13.186604)"><g><path d="M 2.265625 0 L 1.21875 0 L 1.21875 -8.421875 L 2.265625 -8.421875 Z M 2.265625 0 "/></g></g></g><g fill="#000000" fill-opacity="1"><g transform="translate(54.693171, 13.186604)"><g><path d="M 7.8125 0 L 6.203125 0 L 2.234375 -7.390625 C 2.242188 -6.898438 2.25 -6.367188 2.25 -5.796875 C 2.257812 -5.234375 2.265625 -4.703125 2.265625 -4.203125 L 2.265625 0 L 1.21875 0 L 1.21875 -8.421875 L 2.828125 -8.421875 L 6.796875 -1.03125 C 6.785156 -1.519531 6.773438 -2.046875 6.765625 -2.609375 C 6.765625 -3.179688 6.765625 -3.710938 6.765625 -4.203125 L 6.765625 -8.421875 L 7.78125 -8.421875 Z M 7.8125 0 "/></g></g></g><g fill="#000000" fill-opacity="1"><g transform="translate(62.671371, 13.186604)"><g><path d="M 7.46875 -7.5625 L 4.46875 -7.5625 L 4.46875 0 L 3.421875 0 L 3.421875 -7.5625 L 0.421875 -7.5625 L 0.421875 -8.421875 L 7.46875 -8.421875 Z M 7.46875 -7.5625 "/></g></g></g><g fill="#000000" fill-opacity="1"><g transform="translate(69.356476, 13.186604)"><g><path d="M 6.828125 -0.859375 L 6.828125 0 L 1.21875 0 L 1.21875 -8.421875 L 6.703125 -8.421875 L 6.703125 -7.5625 L 2.265625 -7.5625 L 2.265625 -4.640625 L 6.328125 -4.640625 L 6.328125 -3.78125 L 2.265625 -3.78125 L 2.265625 -0.859375 Z M 6.828125 -0.859375 "/></g></g></g><g fill="#000000" fill-opacity="1"><g transform="translate(75.736604, 13.186604)"><g><path d="M 4.875 -4.0625 L 7.890625 -4.0625 L 7.890625 0 L 6.953125 0 L 6.953125 -1.46875 L 6.578125 -0.6875 C 6.335938 -0.414062 6.03125 -0.203125 5.65625 -0.046875 C 5.289062 0.0976562 4.867188 0.171875 4.390625 0.171875 C 3.578125 0.171875 2.882812 -0.015625 2.3125 -0.390625 C 1.75 -0.773438 1.316406 -1.296875 1.015625 -1.953125 C 0.722656 -2.609375 0.578125 -3.347656 0.578125 -4.171875 C 0.578125 -5.023438 0.738281 -5.785156 1.0625 -6.453125 C 1.394531 -7.117188 1.859375 -7.640625 2.453125 -8.015625 C 3.054688 -8.398438 3.753906 -8.59375 4.546875 -8.59375 C 5.265625 -8.59375 5.867188 -8.46875 6.359375 -8.21875 C 6.847656 -7.96875 7.222656 -7.628906 7.484375 -7.203125 C 7.753906 -6.773438 7.921875 -6.285156 7.984375 -5.734375 L 8 -5.609375 L 6.9375 -5.609375 L 6.921875 -5.734375 C 6.796875 -6.335938 6.539062 -6.828125 6.15625 -7.203125 C 5.769531 -7.578125 5.226562 -7.765625 4.53125 -7.765625 C 3.957031 -7.765625 3.460938 -7.609375 3.046875 -7.296875 C 2.628906 -6.992188 2.304688 -6.578125 2.078125 -6.046875 C 1.859375 -5.515625 1.75 -4.90625 1.75 -4.21875 C 1.75 -3.53125 1.859375 -2.914062 2.078125 -2.375 C 2.296875 -1.84375 2.609375 -1.421875 3.015625 -1.109375 C 3.421875 -0.804688 3.898438 -0.65625 4.453125 -0.65625 C 4.910156 -0.65625 5.316406 -0.765625 5.671875 -0.984375 C 6.035156 -1.203125 6.316406 -1.503906 6.515625 -1.890625 C 6.722656 -2.273438 6.828125 -2.710938 6.828125 -3.203125 L 4.875 -3.203125 Z M 4.875 -4.0625 "/></g></g></g><g fill="#000000" fill-opacity="1"><g transform="translate(83.617219, 13.186604)"><g><path d="M 6.765625 -2.203125 C 6.804688 -1.660156 6.863281 -1.210938 6.9375 -0.859375 C 7.019531 -0.515625 7.148438 -0.226562 7.328125 0 L 6.15625 0 C 6.039062 -0.269531 5.953125 -0.554688 5.890625 -0.859375 C 5.828125 -1.171875 5.769531 -1.585938 5.71875 -2.109375 C 5.664062 -2.546875 5.546875 -2.894531 5.359375 -3.15625 C 5.171875 -3.425781 4.867188 -3.578125 4.453125 -3.609375 C 4.359375 -3.617188 4.257812 -3.625 4.15625 -3.625 C 4.050781 -3.625 3.953125 -3.625 3.859375 -3.625 L 2.265625 -3.625 L 2.265625 0 L 1.21875 0 L 1.21875 -8.421875 L 3.984375 -8.421875 C 4.191406 -8.421875 4.378906 -8.414062 4.546875 -8.40625 C 4.710938 -8.40625 4.890625 -8.394531 5.078125 -8.375 C 5.679688 -8.289062 6.179688 -8.070312 6.578125 -7.71875 C 6.972656 -7.363281 7.171875 -6.832031 7.171875 -6.125 C 7.171875 -5.757812 7.097656 -5.441406 6.953125 -5.171875 C 6.816406 -4.898438 6.632812 -4.679688 6.40625 -4.515625 C 6.175781 -4.347656 5.929688 -4.222656 5.671875 -4.140625 C 6.015625 -3.984375 6.273438 -3.726562 6.453125 -3.375 C 6.628906 -3.019531 6.734375 -2.628906 6.765625 -2.203125 Z M 2.265625 -4.484375 L 3.875 -4.484375 C 4.0625 -4.484375 4.21875 -4.484375 4.34375 -4.484375 C 4.46875 -4.484375 4.585938 -4.488281 4.703125 -4.5 C 5.085938 -4.539062 5.40625 -4.6875 5.65625 -4.9375 C 5.914062 -5.195312 6.046875 -5.5625 6.046875 -6.03125 C 6.046875 -6.5 5.9375 -6.847656 5.71875 -7.078125 C 5.507812 -7.316406 5.207031 -7.460938 4.8125 -7.515625 C 4.613281 -7.546875 4.335938 -7.5625 3.984375 -7.5625 L 2.265625 -7.5625 Z M 2.265625 -4.484375 "/></g></g></g><g fill="#000000" fill-opacity="1"><g transform="translate(90.387716, 13.186604)"><g><path d="M 5.5625 -2.984375 L 2.46875 -2.984375 L 1.484375 0 L 0.359375 0 L 3.375 -8.421875 L 4.796875 -8.421875 L 7.703125 0 L 6.5625 0 Z M 2.765625 -3.828125 L 5.28125 -3.828125 L 4.0625 -7.59375 Z M 2.765625 -3.828125 "/></g></g></g><g fill="#000000" fill-opacity="1"><g transform="translate(97.402199, 13.186604)"><g><path d="M 7.46875 -7.5625 L 4.46875 -7.5625 L 4.46875 0 L 3.421875 0 L 3.421875 -7.5625 L 0.421875 -7.5625 L 0.421875 -8.421875 L 7.46875 -8.421875 Z M 7.46875 -7.5625 "/></g></g></g><g fill="#000000" fill-opacity="1"><g transform="translate(104.087304, 13.186604)"><g><path d="M 6.828125 -0.859375 L 6.828125 0 L 1.21875 0 L 1.21875 -8.421875 L 6.703125 -8.421875 L 6.703125 -7.5625 L 2.265625 -7.5625 L 2.265625 -4.640625 L 6.328125 -4.640625 L 6.328125 -3.78125 L 2.265625 -3.78125 L 2.265625 -0.859375 Z M 6.828125 -0.859375 "/></g></g></g><g fill="#000000" fill-opacity="1"><g transform="translate(110.468502, 13.186604)"><g/></g></g><g fill="#000000" fill-opacity="1"><g transform="translate(112.322783, 13.186604)"><g/></g></g><g fill="#000000" fill-opacity="1"><g transform="translate(114.177063, 13.186604)"><g/></g></g><g fill="#000000" fill-opacity="1"><g transform="translate(116.031344, 13.186604)"><g/></g></g><g fill="#000000" fill-opacity="1"><g transform="translate(117.886369, 13.186604)"><g><path d="M 1.875 2.4375 L 1.171875 2.4375 L 1.171875 -9.765625 L 1.875 -9.765625 Z M 1.875 2.4375 "/></g></g></g><g fill="#000000" fill-opacity="1"><g transform="translate(120.157793, 13.186604)"><g/></g></g><g fill="#000000" fill-opacity="1"><g transform="translate(122.012074, 13.186604)"><g/></g></g><g fill="#000000" fill-opacity="1"><g transform="translate(123.866354, 13.186604)"><g/></g></g><g fill="#000000" fill-opacity="1"><g transform="translate(125.720635, 13.186604)"><g/></g></g><g fill="#000000" fill-opacity="1"><g transform="translate(127.57566, 13.186604)"><g><path d="M 2.265625 -7.5625 L 2.265625 -4.640625 L 6.21875 -4.640625 L 6.21875 -3.78125 L 2.265625 -3.78125 L 2.265625 0 L 1.21875 0 L 1.21875 -8.421875 L 6.703125 -8.421875 L 6.703125 -7.5625 Z M 2.265625 -7.5625 "/></g></g></g><g fill="#000000" fill-opacity="1"><g transform="translate(133.711802, 13.186604)"><g><path d="M 5.5625 -2.984375 L 2.46875 -2.984375 L 1.484375 0 L 0.359375 0 L 3.375 -8.421875 L 4.796875 -8.421875 L 7.703125 0 L 6.5625 0 Z M 2.765625 -3.828125 L 5.28125 -3.828125 L 4.0625 -7.59375 Z M 2.765625 -3.828125 "/></g></g></g><g fill="#000000" fill-opacity="1"><g transform="translate(140.726285, 13.186604)"><g><path d="M 4.546875 -8.59375 C 5.265625 -8.59375 5.867188 -8.46875 6.359375 -8.21875 C 6.847656 -7.96875 7.222656 -7.628906 7.484375 -7.203125 C 7.753906 -6.773438 7.921875 -6.285156 7.984375 -5.734375 L 8 -5.609375 L 6.9375 -5.609375 L 6.921875 -5.734375 C 6.796875 -6.335938 6.539062 -6.828125 6.15625 -7.203125 C 5.769531 -7.578125 5.226562 -7.765625 4.53125 -7.765625 C 3.957031 -7.765625 3.460938 -7.609375 3.046875 -7.296875 C 2.628906 -6.992188 2.304688 -6.578125 2.078125 -6.046875 C 1.859375 -5.515625 1.75 -4.90625 1.75 -4.21875 C 1.75 -3.53125 1.859375 -2.914062 2.078125 -2.375 C 2.296875 -1.84375 2.609375 -1.421875 3.015625 -1.109375 C 3.421875 -0.804688 3.898438 -0.65625 4.453125 -0.65625 C 5.148438 -0.65625 5.691406 -0.84375 6.078125 -1.21875 C 6.460938 -1.59375 6.71875 -2.082031 6.84375 -2.6875 L 6.875 -2.8125 L 7.921875 -2.8125 L 7.90625 -2.6875 C 7.851562 -2.175781 7.6875 -1.703125 7.40625 -1.265625 C 7.132812 -0.835938 6.75 -0.488281 6.25 -0.21875 C 5.75 0.0390625 5.128906 0.171875 4.390625 0.171875 C 3.578125 0.171875 2.882812 -0.015625 2.3125 -0.390625 C 1.75 -0.773438 1.316406 -1.296875 1.015625 -1.953125 C 0.722656 -2.609375 0.578125 -3.347656 0.578125 -4.171875 C 0.578125 -5.023438 0.738281 -5.785156 1.0625 -6.453125 C 1.394531 -7.117188 1.859375 -7.640625 2.453125 -8.015625 C 3.054688 -8.398438 3.753906 -8.59375 4.546875 -8.59375 Z M 4.546875 -8.59375 "/></g></g></g><g fill="#000000" fill-opacity="1"><g transform="translate(148.472708, 13.186604)"><g><path d="M 2.265625 0 L 1.21875 0 L 1.21875 -8.421875 L 2.265625 -8.421875 Z M 2.265625 0 "/></g></g></g><g fill="#000000" fill-opacity="1"><g transform="translate(150.912543, 13.186604)"><g><path d="M 6.828125 -0.859375 L 6.828125 0 L 1.21875 0 L 1.21875 -8.421875 L 2.265625 -8.421875 L 2.265625 -0.859375 Z M 6.828125 -0.859375 "/></g></g></g><g fill="#000000" fill-opacity="1"><g transform="translate(157.146286, 13.186604)"><g><path d="M 2.265625 0 L 1.21875 0 L 1.21875 -8.421875 L 2.265625 -8.421875 Z M 2.265625 0 "/></g></g></g><g fill="#000000" fill-opacity="1"><g transform="translate(159.586122, 13.186604)"><g><path d="M 7.46875 -7.5625 L 4.46875 -7.5625 L 4.46875 0 L 3.421875 0 L 3.421875 -7.5625 L 0.421875 -7.5625 L 0.421875 -8.421875 L 7.46875 -8.421875 Z M 7.46875 -7.5625 "/></g></g></g><g fill="#000000" fill-opacity="1"><g transform="translate(166.271227, 13.186604)"><g><path d="M 5.5625 -2.984375 L 2.46875 -2.984375 L 1.484375 0 L 0.359375 0 L 3.375 -8.421875 L 4.796875 -8.421875 L 7.703125 0 L 6.5625 0 Z M 2.765625 -3.828125 L 5.28125 -3.828125 L 4.0625 -7.59375 Z M 2.765625 -3.828125 "/></g></g></g><g fill="#000000" fill-opacity="1"><g transform="translate(173.285709, 13.186604)"><g><path d="M 7.46875 -7.5625 L 4.46875 -7.5625 L 4.46875 0 L 3.421875 0 L 3.421875 -7.5625 L 0.421875 -7.5625 L 0.421875 -8.421875 L 7.46875 -8.421875 Z M 7.46875 -7.5625 "/></g></g></g><g fill="#000000" fill-opacity="1"><g transform="translate(179.970814, 13.186604)"><g><path d="M 6.828125 -0.859375 L 6.828125 0 L 1.21875 0 L 1.21875 -8.421875 L 6.703125 -8.421875 L 6.703125 -7.5625 L 2.265625 -7.5625 L 2.265625 -4.640625 L 6.328125 -4.640625 L 6.328125 -3.78125 L 2.265625 -3.78125 L 2.265625 -0.859375 Z M 6.828125 -0.859375 "/></g></g></g><g fill="#000000" fill-opacity="1"><g transform="translate(186.362658, 13.186604)"><g/></g></g><g fill="#000000" fill-opacity="1"><g transform="translate(188.216939, 13.186604)"><g/></g></g><g fill="#000000" fill-opacity="1"><g transform="translate(190.07122, 13.186604)"><g/></g></g><g fill="#000000" fill-opacity="1"><g transform="translate(191.9255, 13.186604)"><g/></g></g><g fill="#000000" fill-opacity="1"><g transform="translate(193.78052, 13.186604)"><g><path d="M 1.875 2.4375 L 1.171875 2.4375 L 1.171875 -9.765625 L 1.875 -9.765625 Z M 1.875 2.4375 "/></g></g></g><g fill="#000000" fill-opacity="1"><g transform="translate(196.051949, 13.186604)"><g/></g></g><g fill="#000000" fill-opacity="1"><g transform="translate(197.90623, 13.186604)"><g/></g></g><g fill="#000000" fill-opacity="1"><g transform="translate(199.760511, 13.186604)"><g/></g></g><g fill="#000000" fill-opacity="1"><g transform="translate(201.614791, 13.186604)"><g/></g></g><g fill="#000000" fill-opacity="1"><g transform="translate(203.469811, 13.186604)"><g><path d="M 7.46875 -7.5625 L 4.46875 -7.5625 L 4.46875 0 L 3.421875 0 L 3.421875 -7.5625 L 0.421875 -7.5625 L 0.421875 -8.421875 L 7.46875 -8.421875 Z M 7.46875 -7.5625 "/></g></g></g><g fill="#000000" fill-opacity="1"><g transform="translate(210.154917, 13.186604)"><g><path d="M 6.828125 -0.859375 L 6.828125 0 L 1.21875 0 L 1.21875 -8.421875 L 6.703125 -8.421875 L 6.703125 -7.5625 L 2.265625 -7.5625 L 2.265625 -4.640625 L 6.328125 -4.640625 L 6.328125 -3.78125 L 2.265625 -3.78125 L 2.265625 -0.859375 Z M 6.828125 -0.859375 "/></g></g></g><g fill="#000000" fill-opacity="1"><g transform="translate(216.535044, 13.186604)"><g><path d="M 5.5625 -2.984375 L 2.46875 -2.984375 L 1.484375 0 L 0.359375 0 L 3.375 -8.421875 L 4.796875 -8.421875 L 7.703125 0 L 6.5625 0 Z M 2.765625 -3.828125 L 5.28125 -3.828125 L 4.0625 -7.59375 Z M 2.765625 -3.828125 "/></g></g></g><g fill="#000000" fill-opacity="1"><g transform="translate(223.549527, 13.186604)"><g><path d="M 4.546875 -8.59375 C 5.265625 -8.59375 5.867188 -8.46875 6.359375 -8.21875 C 6.847656 -7.96875 7.222656 -7.628906 7.484375 -7.203125 C 7.753906 -6.773438 7.921875 -6.285156 7.984375 -5.734375 L 8 -5.609375 L 6.9375 -5.609375 L 6.921875 -5.734375 C 6.796875 -6.335938 6.539062 -6.828125 6.15625 -7.203125 C 5.769531 -7.578125 5.226562 -7.765625 4.53125 -7.765625 C 3.957031 -7.765625 3.460938 -7.609375 3.046875 -7.296875 C 2.628906 -6.992188 2.304688 -6.578125 2.078125 -6.046875 C 1.859375 -5.515625 1.75 -4.90625 1.75 -4.21875 C 1.75 -3.53125 1.859375 -2.914062 2.078125 -2.375 C 2.296875 -1.84375 2.609375 -1.421875 3.015625 -1.109375 C 3.421875 -0.804688 3.898438 -0.65625 4.453125 -0.65625 C 5.148438 -0.65625 5.691406 -0.84375 6.078125 -1.21875 C 6.460938 -1.59375 6.71875 -2.082031 6.84375 -2.6875 L 6.875 -2.8125 L 7.921875 -2.8125 L 7.90625 -2.6875 C 7.851562 -2.175781 7.6875 -1.703125 7.40625 -1.265625 C 7.132812 -0.835938 6.75 -0.488281 6.25 -0.21875 C 5.75 0.0390625 5.128906 0.171875 4.390625 0.171875 C 3.578125 0.171875 2.882812 -0.015625 2.3125 -0.390625 C 1.75 -0.773438 1.316406 -1.296875 1.015625 -1.953125 C 0.722656 -2.609375 0.578125 -3.347656 0.578125 -4.171875 C 0.578125 -5.023438 0.738281 -5.785156 1.0625 -6.453125 C 1.394531 -7.117188 1.859375 -7.640625 2.453125 -8.015625 C 3.054688 -8.398438 3.753906 -8.59375 4.546875 -8.59375 Z M 4.546875 -8.59375 "/></g></g></g><g clip-path="url(#dacee6fd91)"><g fill="#000000" fill-opacity="1"><g transform="translate(231.295949, 13.186604)"><g><path d="M 7.953125 -8.421875 L 7.953125 0 L 6.90625 0 L 6.90625 -3.6875 L 2.265625 -3.6875 L 2.265625 0 L 1.21875 0 L 1.21875 -8.421875 L 2.265625 -8.421875 L 2.265625 -4.5625 L 6.90625 -4.5625 L 6.90625 -8.421875 Z M 7.953125 -8.421875 "/></g></g></g></g></g></g><g transform="matrix(1, 0, 0, 1, 127, 297)"><g clip-path="url(#957d0c3684)"><g fill="#000000" fill-opacity="1"><g transform="translate(1.352694, 10.77671)"><g><path d="M 3.625 -6.84375 C 4.195312 -6.84375 4.675781 -6.742188 5.0625 -6.546875 C 5.445312 -6.347656 5.742188 -6.078125 5.953125 -5.734375 C 6.171875 -5.398438 6.304688 -5.007812 6.359375 -4.5625 L 6.359375 -4.46875 L 5.53125 -4.46875 L 5.515625 -4.5625 C 5.410156 -5.039062 5.203125 -5.429688 4.890625 -5.734375 C 4.585938 -6.035156 4.160156 -6.1875 3.609375 -6.1875 C 3.148438 -6.1875 2.753906 -6.0625 2.421875 -5.8125 C 2.085938 -5.570312 1.832031 -5.238281 1.65625 -4.8125 C 1.476562 -4.382812 1.390625 -3.898438 1.390625 -3.359375 C 1.390625 -2.804688 1.476562 -2.316406 1.65625 -1.890625 C 1.832031 -1.460938 2.082031 -1.128906 2.40625 -0.890625 C 2.726562 -0.648438 3.109375 -0.53125 3.546875 -0.53125 C 4.109375 -0.53125 4.539062 -0.675781 4.84375 -0.96875 C 5.15625 -1.269531 5.359375 -1.660156 5.453125 -2.140625 L 5.46875 -2.234375 L 6.3125 -2.234375 L 6.296875 -2.140625 C 6.253906 -1.734375 6.125 -1.359375 5.90625 -1.015625 C 5.6875 -0.671875 5.378906 -0.390625 4.984375 -0.171875 C 4.585938 0.0351562 4.09375 0.140625 3.5 0.140625 C 2.851562 0.140625 2.300781 -0.0078125 1.84375 -0.3125 C 1.394531 -0.625 1.050781 -1.039062 0.8125 -1.5625 C 0.570312 -2.082031 0.453125 -2.671875 0.453125 -3.328125 C 0.453125 -4.003906 0.582031 -4.609375 0.84375 -5.140625 C 1.113281 -5.671875 1.484375 -6.085938 1.953125 -6.390625 C 2.429688 -6.691406 2.988281 -6.84375 3.625 -6.84375 Z M 3.625 -6.84375 "/></g></g></g><g fill="#000000" fill-opacity="1"><g transform="translate(7.521895, 10.77671)"><g><path d="M 3.671875 0 L 3.59375 -0.734375 L 3.296875 -0.1875 C 3.128906 -0.0625 2.929688 0.0195312 2.703125 0.0625 C 2.484375 0.113281 2.253906 0.140625 2.015625 0.140625 C 1.703125 0.140625 1.421875 0.0820312 1.171875 -0.03125 C 0.921875 -0.144531 0.71875 -0.3125 0.5625 -0.53125 C 0.414062 -0.75 0.34375 -1.015625 0.34375 -1.328125 C 0.34375 -1.910156 0.570312 -2.347656 1.03125 -2.640625 C 1.5 -2.941406 2.238281 -3.09375 3.25 -3.09375 L 3.578125 -3.09375 L 3.578125 -3.234375 C 3.578125 -3.347656 3.578125 -3.457031 3.578125 -3.5625 C 3.578125 -3.664062 3.570312 -3.765625 3.5625 -3.859375 C 3.539062 -4.097656 3.453125 -4.285156 3.296875 -4.421875 C 3.148438 -4.566406 2.90625 -4.640625 2.5625 -4.640625 C 2.207031 -4.640625 1.941406 -4.546875 1.765625 -4.359375 C 1.585938 -4.179688 1.484375 -3.914062 1.453125 -3.5625 L 0.578125 -3.5625 C 0.609375 -4.113281 0.800781 -4.535156 1.15625 -4.828125 C 1.519531 -5.128906 1.988281 -5.28125 2.5625 -5.28125 C 3.175781 -5.28125 3.617188 -5.160156 3.890625 -4.921875 C 4.171875 -4.679688 4.335938 -4.347656 4.390625 -3.921875 C 4.398438 -3.816406 4.40625 -3.703125 4.40625 -3.578125 C 4.40625 -3.460938 4.40625 -3.351562 4.40625 -3.25 L 4.40625 -1.3125 C 4.40625 -1.113281 4.410156 -0.914062 4.421875 -0.71875 C 4.441406 -0.519531 4.472656 -0.28125 4.515625 0 Z M 2.296875 -0.5 C 2.679688 -0.5 2.988281 -0.625 3.21875 -0.875 C 3.457031 -1.125 3.578125 -1.484375 3.578125 -1.953125 L 3.578125 -2.484375 C 2.867188 -2.535156 2.304688 -2.476562 1.890625 -2.3125 C 1.472656 -2.144531 1.265625 -1.84375 1.265625 -1.40625 C 1.265625 -1.09375 1.351562 -0.863281 1.53125 -0.71875 C 1.71875 -0.570312 1.972656 -0.5 2.296875 -0.5 Z M 2.296875 -0.5 "/></g></g></g><g fill="#000000" fill-opacity="1"><g transform="translate(12.058928, 10.77671)"><g><path d="M 1.515625 -7.140625 L 1.515625 -1.484375 C 1.515625 -1.398438 1.515625 -1.316406 1.515625 -1.234375 C 1.515625 -1.160156 1.519531 -1.078125 1.53125 -0.984375 C 1.539062 -0.828125 1.585938 -0.71875 1.671875 -0.65625 C 1.765625 -0.59375 1.925781 -0.578125 2.15625 -0.609375 L 2.15625 0 C 2.0625 0.0078125 1.960938 0.015625 1.859375 0.015625 C 1.753906 0.0234375 1.65625 0.03125 1.5625 0.03125 C 1.320312 0.03125 1.117188 -0.0195312 0.953125 -0.125 C 0.785156 -0.226562 0.695312 -0.441406 0.6875 -0.765625 C 0.6875 -0.859375 0.6875 -0.957031 0.6875 -1.0625 C 0.6875 -1.175781 0.6875 -1.304688 0.6875 -1.453125 L 0.6875 -7.140625 Z M 1.515625 -7.140625 "/></g></g></g><g fill="#000000" fill-opacity="1"><g transform="translate(13.836831, 10.77671)"><g><path d="M 1.140625 -6.84375 C 1.285156 -6.84375 1.410156 -6.789062 1.515625 -6.6875 C 1.617188 -6.582031 1.671875 -6.457031 1.671875 -6.3125 C 1.671875 -6.15625 1.617188 -6.023438 1.515625 -5.921875 C 1.410156 -5.816406 1.285156 -5.765625 1.140625 -5.765625 C 0.984375 -5.765625 0.851562 -5.816406 0.75 -5.921875 C 0.65625 -6.023438 0.609375 -6.15625 0.609375 -6.3125 C 0.609375 -6.457031 0.65625 -6.582031 0.75 -6.6875 C 0.851562 -6.789062 0.984375 -6.84375 1.140625 -6.84375 Z M 1.5625 0 L 0.71875 0 L 0.71875 -5.15625 L 1.5625 -5.15625 Z M 1.5625 0 "/></g></g></g><g fill="#000000" fill-opacity="1"><g transform="translate(15.527296, 10.77671)"><g><path d="M 1.625 -6.140625 C 1.613281 -6.078125 1.601562 -5.988281 1.59375 -5.875 C 1.59375 -5.769531 1.59375 -5.6875 1.59375 -5.625 L 1.59375 -5.109375 L 2.65625 -5.109375 L 2.65625 -4.46875 L 1.59375 -4.46875 L 1.59375 0 L 0.765625 0 L 0.765625 -4.46875 L 0.203125 -4.46875 L 0.203125 -5.109375 L 0.765625 -5.109375 L 0.765625 -5.546875 C 0.765625 -5.640625 0.765625 -5.742188 0.765625 -5.859375 C 0.773438 -5.972656 0.78125 -6.070312 0.78125 -6.15625 C 0.832031 -6.53125 0.976562 -6.816406 1.21875 -7.015625 C 1.457031 -7.222656 1.765625 -7.328125 2.140625 -7.328125 C 2.253906 -7.328125 2.359375 -7.320312 2.453125 -7.3125 C 2.554688 -7.300781 2.648438 -7.289062 2.734375 -7.28125 L 2.734375 -6.59375 C 2.421875 -6.644531 2.164062 -6.632812 1.96875 -6.5625 C 1.769531 -6.488281 1.65625 -6.347656 1.625 -6.140625 Z M 1.625 -6.140625 "/></g></g></g><g fill="#000000" fill-opacity="1"><g transform="translate(17.722958, 10.77671)"><g><path d="M 2.84375 -5.28125 C 3.425781 -5.28125 3.90625 -5.15625 4.28125 -4.90625 C 4.664062 -4.65625 4.945312 -4.320312 5.125 -3.90625 C 5.3125 -3.5 5.40625 -3.054688 5.40625 -2.578125 C 5.40625 -2.097656 5.3125 -1.648438 5.125 -1.234375 C 4.945312 -0.816406 4.664062 -0.484375 4.28125 -0.234375 C 3.90625 0.015625 3.425781 0.140625 2.84375 0.140625 C 2.257812 0.140625 1.78125 0.015625 1.40625 -0.234375 C 1.03125 -0.484375 0.75 -0.816406 0.5625 -1.234375 C 0.382812 -1.648438 0.296875 -2.097656 0.296875 -2.578125 C 0.296875 -3.054688 0.382812 -3.5 0.5625 -3.90625 C 0.75 -4.320312 1.03125 -4.65625 1.40625 -4.90625 C 1.78125 -5.15625 2.257812 -5.28125 2.84375 -5.28125 Z M 2.84375 -0.5 C 3.195312 -0.5 3.492188 -0.585938 3.734375 -0.765625 C 3.972656 -0.953125 4.15625 -1.195312 4.28125 -1.5 C 4.414062 -1.8125 4.484375 -2.171875 4.484375 -2.578125 C 4.484375 -3.179688 4.335938 -3.675781 4.046875 -4.0625 C 3.765625 -4.445312 3.363281 -4.640625 2.84375 -4.640625 C 2.320312 -4.640625 1.914062 -4.445312 1.625 -4.0625 C 1.34375 -3.675781 1.203125 -3.179688 1.203125 -2.578125 C 1.203125 -2.171875 1.265625 -1.8125 1.390625 -1.5 C 1.523438 -1.195312 1.710938 -0.953125 1.953125 -0.765625 C 2.203125 -0.585938 2.5 -0.5 2.84375 -0.5 Z M 2.84375 -0.5 "/></g></g></g><g fill="#000000" fill-opacity="1"><g transform="translate(22.794328, 10.77671)"><g><path d="M 2.734375 -5.265625 C 2.878906 -5.265625 3 -5.242188 3.09375 -5.203125 L 3.09375 -4.5625 C 2.65625 -4.59375 2.289062 -4.472656 2 -4.203125 C 1.707031 -3.941406 1.5625 -3.519531 1.5625 -2.9375 L 1.5625 0 L 0.71875 0 L 0.71875 -5.15625 L 1.5625 -5.15625 L 1.5625 -4.34375 L 2.015625 -5.03125 C 2.242188 -5.1875 2.484375 -5.265625 2.734375 -5.265625 Z M 2.734375 -5.265625 "/></g></g></g><g fill="#000000" fill-opacity="1"><g transform="translate(25.378594, 10.77671)"><g><path d="M 5.046875 -3.78125 C 5.066406 -3.65625 5.078125 -3.523438 5.078125 -3.390625 C 5.078125 -3.265625 5.078125 -3.097656 5.078125 -2.890625 L 5.078125 0 L 4.234375 0 L 4.234375 -2.84375 C 4.234375 -2.96875 4.234375 -3.085938 4.234375 -3.203125 C 4.234375 -3.316406 4.226562 -3.441406 4.21875 -3.578125 C 4.1875 -3.878906 4.082031 -4.128906 3.90625 -4.328125 C 3.726562 -4.523438 3.441406 -4.625 3.046875 -4.625 C 2.773438 -4.625 2.523438 -4.546875 2.296875 -4.390625 C 2.078125 -4.242188 1.898438 -4 1.765625 -3.65625 C 1.628906 -3.320312 1.5625 -2.859375 1.5625 -2.265625 L 1.5625 0 L 0.71875 0 L 0.71875 -5.15625 L 1.5625 -5.15625 L 1.5625 -4.265625 L 1.875 -4.859375 C 2.09375 -5.023438 2.304688 -5.132812 2.515625 -5.1875 C 2.722656 -5.25 2.957031 -5.28125 3.21875 -5.28125 C 3.78125 -5.28125 4.21875 -5.140625 4.53125 -4.859375 C 4.84375 -4.585938 5.015625 -4.226562 5.046875 -3.78125 Z M 5.046875 -3.78125 "/></g></g></g><g fill="#000000" fill-opacity="1"><g transform="translate(30.51797, 10.77671)"><g><path d="M 1.140625 -6.84375 C 1.285156 -6.84375 1.410156 -6.789062 1.515625 -6.6875 C 1.617188 -6.582031 1.671875 -6.457031 1.671875 -6.3125 C 1.671875 -6.15625 1.617188 -6.023438 1.515625 -5.921875 C 1.410156 -5.816406 1.285156 -5.765625 1.140625 -5.765625 C 0.984375 -5.765625 0.851562 -5.816406 0.75 -5.921875 C 0.65625 -6.023438 0.609375 -6.15625 0.609375 -6.3125 C 0.609375 -6.457031 0.65625 -6.582031 0.75 -6.6875 C 0.851562 -6.789062 0.984375 -6.84375 1.140625 -6.84375 Z M 1.5625 0 L 0.71875 0 L 0.71875 -5.15625 L 1.5625 -5.15625 Z M 1.5625 0 "/></g></g></g><g fill="#000000" fill-opacity="1"><g transform="translate(32.208435, 10.77671)"><g><path d="M 3.671875 0 L 3.59375 -0.734375 L 3.296875 -0.1875 C 3.128906 -0.0625 2.929688 0.0195312 2.703125 0.0625 C 2.484375 0.113281 2.253906 0.140625 2.015625 0.140625 C 1.703125 0.140625 1.421875 0.0820312 1.171875 -0.03125 C 0.921875 -0.144531 0.71875 -0.3125 0.5625 -0.53125 C 0.414062 -0.75 0.34375 -1.015625 0.34375 -1.328125 C 0.34375 -1.910156 0.570312 -2.347656 1.03125 -2.640625 C 1.5 -2.941406 2.238281 -3.09375 3.25 -3.09375 L 3.578125 -3.09375 L 3.578125 -3.234375 C 3.578125 -3.347656 3.578125 -3.457031 3.578125 -3.5625 C 3.578125 -3.664062 3.570312 -3.765625 3.5625 -3.859375 C 3.539062 -4.097656 3.453125 -4.285156 3.296875 -4.421875 C 3.148438 -4.566406 2.90625 -4.640625 2.5625 -4.640625 C 2.207031 -4.640625 1.941406 -4.546875 1.765625 -4.359375 C 1.585938 -4.179688 1.484375 -3.914062 1.453125 -3.5625 L 0.578125 -3.5625 C 0.609375 -4.113281 0.800781 -4.535156 1.15625 -4.828125 C 1.519531 -5.128906 1.988281 -5.28125 2.5625 -5.28125 C 3.175781 -5.28125 3.617188 -5.160156 3.890625 -4.921875 C 4.171875 -4.679688 4.335938 -4.347656 4.390625 -3.921875 C 4.398438 -3.816406 4.40625 -3.703125 4.40625 -3.578125 C 4.40625 -3.460938 4.40625 -3.351562 4.40625 -3.25 L 4.40625 -1.3125 C 4.40625 -1.113281 4.410156 -0.914062 4.421875 -0.71875 C 4.441406 -0.519531 4.472656 -0.28125 4.515625 0 Z M 2.296875 -0.5 C 2.679688 -0.5 2.988281 -0.625 3.21875 -0.875 C 3.457031 -1.125 3.578125 -1.484375 3.578125 -1.953125 L 3.578125 -2.484375 C 2.867188 -2.535156 2.304688 -2.476562 1.890625 -2.3125 C 1.472656 -2.144531 1.265625 -1.84375 1.265625 -1.40625 C 1.265625 -1.09375 1.351562 -0.863281 1.53125 -0.71875 C 1.71875 -0.570312 1.972656 -0.5 2.296875 -0.5 Z M 2.296875 -0.5 "/></g></g></g><g fill="#000000" fill-opacity="1"><g transform="translate(36.745468, 10.77671)"><g/></g></g><g fill="#000000" fill-opacity="1"><g transform="translate(38.222205, 10.77671)"><g><path d="M 7.65625 -6.703125 L 7.65625 0 L 6.828125 0 L 6.828125 -3.453125 C 6.828125 -3.867188 6.828125 -4.296875 6.828125 -4.734375 C 6.828125 -5.179688 6.832031 -5.585938 6.84375 -5.953125 C 6.726562 -5.585938 6.597656 -5.179688 6.453125 -4.734375 C 6.304688 -4.296875 6.164062 -3.867188 6.03125 -3.453125 L 4.84375 0 L 3.796875 0 L 2.578125 -3.484375 C 2.441406 -3.878906 2.300781 -4.296875 2.15625 -4.734375 C 2.019531 -5.171875 1.894531 -5.566406 1.78125 -5.921875 C 1.800781 -5.566406 1.8125 -5.171875 1.8125 -4.734375 C 1.8125 -4.296875 1.8125 -3.867188 1.8125 -3.453125 L 1.8125 0 L 0.96875 0 L 0.96875 -6.703125 L 2.359375 -6.703125 L 4.328125 -0.703125 L 6.3125 -6.703125 Z M 7.65625 -6.703125 "/></g></g></g><g fill="#000000" fill-opacity="1"><g transform="translate(46.013853, 10.77671)"><g><path d="M 3.671875 0 L 3.59375 -0.734375 L 3.296875 -0.1875 C 3.128906 -0.0625 2.929688 0.0195312 2.703125 0.0625 C 2.484375 0.113281 2.253906 0.140625 2.015625 0.140625 C 1.703125 0.140625 1.421875 0.0820312 1.171875 -0.03125 C 0.921875 -0.144531 0.71875 -0.3125 0.5625 -0.53125 C 0.414062 -0.75 0.34375 -1.015625 0.34375 -1.328125 C 0.34375 -1.910156 0.570312 -2.347656 1.03125 -2.640625 C 1.5 -2.941406 2.238281 -3.09375 3.25 -3.09375 L 3.578125 -3.09375 L 3.578125 -3.234375 C 3.578125 -3.347656 3.578125 -3.457031 3.578125 -3.5625 C 3.578125 -3.664062 3.570312 -3.765625 3.5625 -3.859375 C 3.539062 -4.097656 3.453125 -4.285156 3.296875 -4.421875 C 3.148438 -4.566406 2.90625 -4.640625 2.5625 -4.640625 C 2.207031 -4.640625 1.941406 -4.546875 1.765625 -4.359375 C 1.585938 -4.179688 1.484375 -3.914062 1.453125 -3.5625 L 0.578125 -3.5625 C 0.609375 -4.113281 0.800781 -4.535156 1.15625 -4.828125 C 1.519531 -5.128906 1.988281 -5.28125 2.5625 -5.28125 C 3.175781 -5.28125 3.617188 -5.160156 3.890625 -4.921875 C 4.171875 -4.679688 4.335938 -4.347656 4.390625 -3.921875 C 4.398438 -3.816406 4.40625 -3.703125 4.40625 -3.578125 C 4.40625 -3.460938 4.40625 -3.351562 4.40625 -3.25 L 4.40625 -1.3125 C 4.40625 -1.113281 4.410156 -0.914062 4.421875 -0.71875 C 4.441406 -0.519531 4.472656 -0.28125 4.515625 0 Z M 2.296875 -0.5 C 2.679688 -0.5 2.988281 -0.625 3.21875 -0.875 C 3.457031 -1.125 3.578125 -1.484375 3.578125 -1.953125 L 3.578125 -2.484375 C 2.867188 -2.535156 2.304688 -2.476562 1.890625 -2.3125 C 1.472656 -2.144531 1.265625 -1.84375 1.265625 -1.40625 C 1.265625 -1.09375 1.351562 -0.863281 1.53125 -0.71875 C 1.71875 -0.570312 1.972656 -0.5 2.296875 -0.5 Z M 2.296875 -0.5 "/></g></g></g><g fill="#000000" fill-opacity="1"><g transform="translate(50.550885, 10.77671)"><g><path d="M 1.71875 -4.46875 L 1.71875 -1.5 C 1.71875 -1.414062 1.71875 -1.347656 1.71875 -1.296875 C 1.71875 -1.242188 1.722656 -1.179688 1.734375 -1.109375 C 1.753906 -0.859375 1.828125 -0.695312 1.953125 -0.625 C 2.078125 -0.5625 2.300781 -0.546875 2.625 -0.578125 L 2.625 0.03125 C 2.5 0.0507812 2.378906 0.0625 2.265625 0.0625 C 2.148438 0.0703125 2.035156 0.078125 1.921875 0.078125 C 1.597656 0.078125 1.351562 0.0078125 1.1875 -0.125 C 1.019531 -0.269531 0.921875 -0.503906 0.890625 -0.828125 C 0.890625 -0.898438 0.890625 -0.988281 0.890625 -1.09375 C 0.890625 -1.195312 0.890625 -1.320312 0.890625 -1.46875 L 0.890625 -4.46875 L 0.1875 -4.46875 L 0.1875 -5.109375 L 0.890625 -5.109375 L 0.890625 -6.3125 L 1.71875 -6.3125 L 1.71875 -5.109375 L 2.6875 -5.109375 L 2.6875 -4.46875 Z M 1.71875 -4.46875 "/></g></g></g><g fill="#000000" fill-opacity="1"><g transform="translate(52.969997, 10.77671)"><g><path d="M 5.046875 -3.78125 C 5.066406 -3.65625 5.078125 -3.523438 5.078125 -3.390625 C 5.078125 -3.265625 5.078125 -3.097656 5.078125 -2.890625 L 5.078125 0 L 4.234375 0 L 4.234375 -2.84375 C 4.234375 -2.96875 4.234375 -3.085938 4.234375 -3.203125 C 4.234375 -3.316406 4.226562 -3.441406 4.21875 -3.578125 C 4.1875 -3.878906 4.082031 -4.128906 3.90625 -4.328125 C 3.726562 -4.535156 3.441406 -4.632812 3.046875 -4.625 C 2.773438 -4.613281 2.523438 -4.535156 2.296875 -4.390625 C 2.078125 -4.242188 1.898438 -4 1.765625 -3.65625 C 1.628906 -3.320312 1.5625 -2.859375 1.5625 -2.265625 L 1.5625 0 L 0.71875 0 L 0.71875 -7.1875 L 1.5625 -7.1875 L 1.5625 -4.265625 L 1.875 -4.859375 C 2.09375 -5.023438 2.304688 -5.132812 2.515625 -5.1875 C 2.722656 -5.25 2.957031 -5.28125 3.21875 -5.28125 C 3.78125 -5.28125 4.21875 -5.140625 4.53125 -4.859375 C 4.84375 -4.585938 5.015625 -4.226562 5.046875 -3.78125 Z M 5.046875 -3.78125 "/></g></g></g><g fill="#000000" fill-opacity="1"><g transform="translate(58.109373, 10.77671)"><g/></g></g><g fill="#000000" fill-opacity="1"><g transform="translate(59.586111, 10.77671)"><g><path d="M 3.921875 -6.671875 C 4.460938 -6.597656 4.890625 -6.394531 5.203125 -6.0625 C 5.515625 -5.738281 5.671875 -5.289062 5.671875 -4.71875 C 5.671875 -4.34375 5.59375 -4.015625 5.4375 -3.734375 C 5.28125 -3.460938 5.066406 -3.242188 4.796875 -3.078125 C 4.535156 -2.921875 4.242188 -2.820312 3.921875 -2.78125 C 3.773438 -2.757812 3.632812 -2.742188 3.5 -2.734375 C 3.363281 -2.734375 3.210938 -2.734375 3.046875 -2.734375 L 1.8125 -2.734375 L 1.8125 0 L 0.96875 0 L 0.96875 -6.703125 L 3.046875 -6.703125 C 3.210938 -6.703125 3.363281 -6.703125 3.5 -6.703125 C 3.632812 -6.703125 3.773438 -6.691406 3.921875 -6.671875 Z M 3.875 -3.484375 C 4.113281 -3.535156 4.320312 -3.65625 4.5 -3.84375 C 4.675781 -4.039062 4.765625 -4.332031 4.765625 -4.71875 C 4.765625 -5.113281 4.675781 -5.40625 4.5 -5.59375 C 4.320312 -5.78125 4.113281 -5.898438 3.875 -5.953125 C 3.78125 -5.972656 3.671875 -5.984375 3.546875 -5.984375 C 3.421875 -5.992188 3.28125 -6 3.125 -6 L 1.8125 -6 L 1.8125 -3.4375 L 3.125 -3.4375 C 3.28125 -3.4375 3.421875 -3.4375 3.546875 -3.4375 C 3.671875 -3.445312 3.78125 -3.460938 3.875 -3.484375 Z M 3.875 -3.484375 "/></g></g></g><g fill="#000000" fill-opacity="1"><g transform="translate(64.774073, 10.77671)"><g><path d="M 2.734375 -5.265625 C 2.878906 -5.265625 3 -5.242188 3.09375 -5.203125 L 3.09375 -4.5625 C 2.65625 -4.59375 2.289062 -4.472656 2 -4.203125 C 1.707031 -3.941406 1.5625 -3.519531 1.5625 -2.9375 L 1.5625 0 L 0.71875 0 L 0.71875 -5.15625 L 1.5625 -5.15625 L 1.5625 -4.34375 L 2.015625 -5.03125 C 2.242188 -5.1875 2.484375 -5.265625 2.734375 -5.265625 Z M 2.734375 -5.265625 "/></g></g></g><g fill="#000000" fill-opacity="1"><g transform="translate(67.358339, 10.77671)"><g><path d="M 2.84375 -5.28125 C 3.425781 -5.28125 3.90625 -5.15625 4.28125 -4.90625 C 4.664062 -4.65625 4.945312 -4.320312 5.125 -3.90625 C 5.3125 -3.5 5.40625 -3.054688 5.40625 -2.578125 C 5.40625 -2.097656 5.3125 -1.648438 5.125 -1.234375 C 4.945312 -0.816406 4.664062 -0.484375 4.28125 -0.234375 C 3.90625 0.015625 3.425781 0.140625 2.84375 0.140625 C 2.257812 0.140625 1.78125 0.015625 1.40625 -0.234375 C 1.03125 -0.484375 0.75 -0.816406 0.5625 -1.234375 C 0.382812 -1.648438 0.296875 -2.097656 0.296875 -2.578125 C 0.296875 -3.054688 0.382812 -3.5 0.5625 -3.90625 C 0.75 -4.320312 1.03125 -4.65625 1.40625 -4.90625 C 1.78125 -5.15625 2.257812 -5.28125 2.84375 -5.28125 Z M 2.84375 -0.5 C 3.195312 -0.5 3.492188 -0.585938 3.734375 -0.765625 C 3.972656 -0.953125 4.15625 -1.195312 4.28125 -1.5 C 4.414062 -1.8125 4.484375 -2.171875 4.484375 -2.578125 C 4.484375 -3.179688 4.335938 -3.675781 4.046875 -4.0625 C 3.765625 -4.445312 3.363281 -4.640625 2.84375 -4.640625 C 2.320312 -4.640625 1.914062 -4.445312 1.625 -4.0625 C 1.34375 -3.675781 1.203125 -3.179688 1.203125 -2.578125 C 1.203125 -2.171875 1.265625 -1.8125 1.390625 -1.5 C 1.523438 -1.195312 1.710938 -0.953125 1.953125 -0.765625 C 2.203125 -0.585938 2.5 -0.5 2.84375 -0.5 Z M 2.84375 -0.5 "/></g></g></g><g fill="#000000" fill-opacity="1"><g transform="translate(72.42971, 10.77671)"><g><path d="M 1.09375 -6.84375 C 1.238281 -6.84375 1.363281 -6.789062 1.46875 -6.6875 C 1.570312 -6.582031 1.625 -6.457031 1.625 -6.3125 C 1.625 -6.15625 1.570312 -6.023438 1.46875 -5.921875 C 1.363281 -5.816406 1.238281 -5.765625 1.09375 -5.765625 C 0.9375 -5.765625 0.804688 -5.816406 0.703125 -5.921875 C 0.597656 -6.023438 0.546875 -6.15625 0.546875 -6.3125 C 0.546875 -6.457031 0.597656 -6.582031 0.703125 -6.6875 C 0.804688 -6.789062 0.9375 -6.84375 1.09375 -6.84375 Z M 1.5 -5.15625 L 1.5 0.453125 C 1.5 0.546875 1.5 0.648438 1.5 0.765625 C 1.5 0.878906 1.492188 0.976562 1.484375 1.0625 C 1.441406 1.375 1.328125 1.613281 1.140625 1.78125 C 0.960938 1.957031 0.671875 2.046875 0.265625 2.046875 C 0.191406 2.046875 0.125 2.039062 0.0625 2.03125 C 0 2.03125 -0.0625 2.023438 -0.125 2.015625 L -0.125 1.34375 C 0.132812 1.363281 0.320312 1.332031 0.4375 1.25 C 0.5625 1.175781 0.632812 1.0625 0.65625 0.90625 C 0.664062 0.84375 0.671875 0.773438 0.671875 0.703125 C 0.671875 0.628906 0.671875 0.554688 0.671875 0.484375 L 0.671875 -5.15625 Z M 1.5 -5.15625 "/></g></g></g><g fill="#000000" fill-opacity="1"><g transform="translate(74.071601, 10.77671)"><g><path d="M 4.953125 -2.71875 C 4.953125 -2.675781 4.953125 -2.617188 4.953125 -2.546875 C 4.953125 -2.484375 4.941406 -2.410156 4.921875 -2.328125 L 1.203125 -2.328125 C 1.222656 -1.867188 1.300781 -1.503906 1.4375 -1.234375 C 1.582031 -0.972656 1.757812 -0.785156 1.96875 -0.671875 C 2.1875 -0.554688 2.421875 -0.5 2.671875 -0.5 C 3.003906 -0.5 3.296875 -0.597656 3.546875 -0.796875 C 3.796875 -1.003906 3.945312 -1.289062 4 -1.65625 L 4.875 -1.65625 C 4.8125 -1.25 4.664062 -0.910156 4.4375 -0.640625 C 4.21875 -0.378906 3.953125 -0.179688 3.640625 -0.046875 C 3.328125 0.078125 2.992188 0.140625 2.640625 0.140625 C 2.191406 0.140625 1.789062 0.0390625 1.4375 -0.15625 C 1.082031 -0.351562 0.800781 -0.648438 0.59375 -1.046875 C 0.394531 -1.453125 0.296875 -1.957031 0.296875 -2.5625 C 0.296875 -3.113281 0.398438 -3.59375 0.609375 -4 C 0.828125 -4.40625 1.117188 -4.71875 1.484375 -4.9375 C 1.859375 -5.164062 2.273438 -5.28125 2.734375 -5.28125 C 3.210938 -5.28125 3.613281 -5.171875 3.9375 -4.953125 C 4.269531 -4.742188 4.519531 -4.445312 4.6875 -4.0625 C 4.863281 -3.675781 4.953125 -3.226562 4.953125 -2.71875 Z M 2.71875 -4.640625 C 2.3125 -4.640625 1.96875 -4.5 1.6875 -4.21875 C 1.414062 -3.9375 1.253906 -3.519531 1.203125 -2.96875 L 4.09375 -2.96875 C 4.0625 -3.5 3.929688 -3.910156 3.703125 -4.203125 C 3.472656 -4.492188 3.144531 -4.640625 2.71875 -4.640625 Z M 2.71875 -4.640625 "/></g></g></g><g fill="#000000" fill-opacity="1"><g transform="translate(78.783509, 10.77671)"><g><path d="M 2.71875 -5.28125 C 3.332031 -5.28125 3.828125 -5.109375 4.203125 -4.765625 C 4.578125 -4.429688 4.804688 -3.984375 4.890625 -3.421875 L 4.015625 -3.421875 C 3.828125 -4.234375 3.382812 -4.640625 2.6875 -4.640625 C 2.425781 -4.640625 2.179688 -4.566406 1.953125 -4.421875 C 1.722656 -4.285156 1.539062 -4.066406 1.40625 -3.765625 C 1.269531 -3.472656 1.203125 -3.09375 1.203125 -2.625 C 1.203125 -2.125 1.269531 -1.71875 1.40625 -1.40625 C 1.539062 -1.09375 1.710938 -0.863281 1.921875 -0.71875 C 2.140625 -0.570312 2.378906 -0.5 2.640625 -0.5 C 2.984375 -0.5 3.269531 -0.59375 3.5 -0.78125 C 3.726562 -0.976562 3.882812 -1.265625 3.96875 -1.640625 L 4.84375 -1.640625 C 4.71875 -1.046875 4.453125 -0.597656 4.046875 -0.296875 C 3.648438 -0.00390625 3.160156 0.140625 2.578125 0.140625 C 2.148438 0.140625 1.757812 0.046875 1.40625 -0.140625 C 1.0625 -0.328125 0.789062 -0.617188 0.59375 -1.015625 C 0.394531 -1.421875 0.296875 -1.9375 0.296875 -2.5625 C 0.296875 -3.144531 0.40625 -3.640625 0.625 -4.046875 C 0.851562 -4.453125 1.148438 -4.757812 1.515625 -4.96875 C 1.878906 -5.175781 2.28125 -5.28125 2.71875 -5.28125 Z M 2.71875 -5.28125 "/></g></g></g><g fill="#000000" fill-opacity="1"><g transform="translate(83.301109, 10.77671)"><g><path d="M 1.71875 -4.46875 L 1.71875 -1.5 C 1.71875 -1.414062 1.71875 -1.347656 1.71875 -1.296875 C 1.71875 -1.242188 1.722656 -1.179688 1.734375 -1.109375 C 1.753906 -0.859375 1.828125 -0.695312 1.953125 -0.625 C 2.078125 -0.5625 2.300781 -0.546875 2.625 -0.578125 L 2.625 0.03125 C 2.5 0.0507812 2.378906 0.0625 2.265625 0.0625 C 2.148438 0.0703125 2.035156 0.078125 1.921875 0.078125 C 1.597656 0.078125 1.351562 0.0078125 1.1875 -0.125 C 1.019531 -0.269531 0.921875 -0.503906 0.890625 -0.828125 C 0.890625 -0.898438 0.890625 -0.988281 0.890625 -1.09375 C 0.890625 -1.195312 0.890625 -1.320312 0.890625 -1.46875 L 0.890625 -4.46875 L 0.1875 -4.46875 L 0.1875 -5.109375 L 0.890625 -5.109375 L 0.890625 -6.3125 L 1.71875 -6.3125 L 1.71875 -5.109375 L 2.6875 -5.109375 L 2.6875 -4.46875 Z M 1.71875 -4.46875 "/></g></g></g><g fill="#000000" fill-opacity="1"><g transform="translate(85.720221, 10.77671)"><g/></g></g><g fill="#000000" fill-opacity="1"><g transform="translate(87.196958, 10.77671)"><g><path d="M 6.15625 -4.515625 L 5.546875 -1.953125 C 5.535156 -1.890625 5.523438 -1.832031 5.515625 -1.78125 C 5.515625 -1.726562 5.515625 -1.679688 5.515625 -1.640625 C 5.515625 -1.554688 5.535156 -1.476562 5.578125 -1.40625 C 5.617188 -1.332031 5.71875 -1.296875 5.875 -1.296875 C 6.070312 -1.296875 6.257812 -1.363281 6.4375 -1.5 C 6.625 -1.632812 6.773438 -1.84375 6.890625 -2.125 C 7.015625 -2.40625 7.078125 -2.765625 7.078125 -3.203125 C 7.078125 -3.796875 6.957031 -4.289062 6.71875 -4.6875 C 6.488281 -5.082031 6.179688 -5.378906 5.796875 -5.578125 C 5.410156 -5.785156 4.988281 -5.890625 4.53125 -5.890625 C 4.125 -5.890625 3.71875 -5.8125 3.3125 -5.65625 C 2.914062 -5.5 2.550781 -5.269531 2.21875 -4.96875 C 1.882812 -4.664062 1.617188 -4.296875 1.421875 -3.859375 C 1.222656 -3.429688 1.125 -2.9375 1.125 -2.375 C 1.125 -1.738281 1.25 -1.210938 1.5 -0.796875 C 1.75 -0.378906 2.082031 -0.0664062 2.5 0.140625 C 2.914062 0.347656 3.375 0.453125 3.875 0.453125 C 4.269531 0.453125 4.6875 0.382812 5.125 0.25 C 5.5625 0.125 5.957031 -0.0664062 6.3125 -0.328125 L 6.546875 0.140625 C 6.078125 0.460938 5.609375 0.6875 5.140625 0.8125 C 4.671875 0.945312 4.238281 1.015625 3.84375 1.015625 C 3.414062 1.015625 3.003906 0.941406 2.609375 0.796875 C 2.210938 0.660156 1.851562 0.453125 1.53125 0.171875 C 1.21875 -0.109375 0.972656 -0.457031 0.796875 -0.875 C 0.617188 -1.289062 0.53125 -1.785156 0.53125 -2.359375 C 0.53125 -3.003906 0.644531 -3.578125 0.875 -4.078125 C 1.101562 -4.585938 1.410156 -5.019531 1.796875 -5.375 C 2.179688 -5.726562 2.613281 -5.992188 3.09375 -6.171875 C 3.570312 -6.359375 4.0625 -6.453125 4.5625 -6.453125 C 5.175781 -6.453125 5.710938 -6.316406 6.171875 -6.046875 C 6.640625 -5.773438 7.003906 -5.394531 7.265625 -4.90625 C 7.535156 -4.425781 7.671875 -3.863281 7.671875 -3.21875 C 7.671875 -2.632812 7.566406 -2.160156 7.359375 -1.796875 C 7.160156 -1.429688 6.910156 -1.160156 6.609375 -0.984375 C 6.304688 -0.816406 6 -0.734375 5.6875 -0.734375 C 5.4375 -0.734375 5.21875 -0.785156 5.03125 -0.890625 C 4.851562 -1.003906 4.75 -1.179688 4.71875 -1.421875 L 4.515625 -1.03125 C 4.210938 -0.78125 3.882812 -0.65625 3.53125 -0.65625 C 3.332031 -0.65625 3.125 -0.703125 2.90625 -0.796875 C 2.695312 -0.890625 2.519531 -1.050781 2.375 -1.28125 C 2.238281 -1.507812 2.171875 -1.820312 2.171875 -2.21875 C 2.171875 -2.644531 2.257812 -3.046875 2.4375 -3.421875 C 2.613281 -3.796875 2.859375 -4.097656 3.171875 -4.328125 C 3.492188 -4.566406 3.859375 -4.6875 4.265625 -4.6875 C 4.441406 -4.6875 4.601562 -4.660156 4.75 -4.609375 C 4.90625 -4.566406 5.03125 -4.492188 5.125 -4.390625 L 5.203125 -3.921875 L 5.375 -4.515625 Z M 4.84375 -2.4375 L 4.921875 -2.8125 C 4.992188 -3.125 5.007812 -3.367188 4.96875 -3.546875 C 4.925781 -3.734375 4.847656 -3.863281 4.734375 -3.9375 C 4.617188 -4.007812 4.484375 -4.046875 4.328125 -4.046875 C 4.066406 -4.046875 3.84375 -3.957031 3.65625 -3.78125 C 3.46875 -3.613281 3.320312 -3.394531 3.21875 -3.125 C 3.125 -2.851562 3.078125 -2.570312 3.078125 -2.28125 C 3.078125 -1.914062 3.140625 -1.660156 3.265625 -1.515625 C 3.398438 -1.367188 3.554688 -1.296875 3.734375 -1.296875 C 3.921875 -1.296875 4.085938 -1.347656 4.234375 -1.453125 C 4.378906 -1.566406 4.503906 -1.707031 4.609375 -1.875 C 4.710938 -2.050781 4.789062 -2.238281 4.84375 -2.4375 Z M 4.84375 -2.4375 "/></g></g></g><g fill="#000000" fill-opacity="1"><g transform="translate(94.852594, 10.77671)"><g/></g></g><g fill="#000000" fill-opacity="1"><g transform="translate(96.329331, 10.77671)"><g><path d="M 3.625 -6.84375 C 4.195312 -6.84375 4.675781 -6.742188 5.0625 -6.546875 C 5.445312 -6.347656 5.742188 -6.078125 5.953125 -5.734375 C 6.171875 -5.398438 6.304688 -5.007812 6.359375 -4.5625 L 6.359375 -4.46875 L 5.53125 -4.46875 L 5.515625 -4.5625 C 5.410156 -5.039062 5.203125 -5.429688 4.890625 -5.734375 C 4.585938 -6.035156 4.160156 -6.1875 3.609375 -6.1875 C 3.148438 -6.1875 2.753906 -6.0625 2.421875 -5.8125 C 2.085938 -5.570312 1.832031 -5.238281 1.65625 -4.8125 C 1.476562 -4.382812 1.390625 -3.898438 1.390625 -3.359375 C 1.390625 -2.804688 1.476562 -2.316406 1.65625 -1.890625 C 1.832031 -1.460938 2.082031 -1.128906 2.40625 -0.890625 C 2.726562 -0.648438 3.109375 -0.53125 3.546875 -0.53125 C 4.109375 -0.53125 4.539062 -0.675781 4.84375 -0.96875 C 5.15625 -1.269531 5.359375 -1.660156 5.453125 -2.140625 L 5.46875 -2.234375 L 6.3125 -2.234375 L 6.296875 -2.140625 C 6.253906 -1.734375 6.125 -1.359375 5.90625 -1.015625 C 5.6875 -0.671875 5.378906 -0.390625 4.984375 -0.171875 C 4.585938 0.0351562 4.09375 0.140625 3.5 0.140625 C 2.851562 0.140625 2.300781 -0.0078125 1.84375 -0.3125 C 1.394531 -0.625 1.050781 -1.039062 0.8125 -1.5625 C 0.570312 -2.082031 0.453125 -2.671875 0.453125 -3.328125 C 0.453125 -4.003906 0.582031 -4.609375 0.84375 -5.140625 C 1.113281 -5.671875 1.484375 -6.085938 1.953125 -6.390625 C 2.429688 -6.691406 2.988281 -6.84375 3.625 -6.84375 Z M 3.625 -6.84375 "/></g></g></g><g fill="#000000" fill-opacity="1"><g transform="translate(102.498533, 10.77671)"><g><path d="M 3.046875 -6.84375 C 3.515625 -6.84375 3.90625 -6.753906 4.21875 -6.578125 C 4.539062 -6.410156 4.789062 -6.175781 4.96875 -5.875 C 5.144531 -5.570312 5.253906 -5.226562 5.296875 -4.84375 L 4.40625 -4.84375 C 4.363281 -5.269531 4.21875 -5.597656 3.96875 -5.828125 C 3.726562 -6.066406 3.398438 -6.1875 2.984375 -6.1875 C 2.628906 -6.1875 2.328125 -6.097656 2.078125 -5.921875 C 1.828125 -5.753906 1.703125 -5.5 1.703125 -5.15625 C 1.703125 -4.789062 1.8125 -4.515625 2.03125 -4.328125 C 2.257812 -4.140625 2.632812 -3.988281 3.15625 -3.875 C 3.882812 -3.707031 4.429688 -3.460938 4.796875 -3.140625 C 5.171875 -2.816406 5.359375 -2.367188 5.359375 -1.796875 C 5.359375 -1.398438 5.253906 -1.054688 5.046875 -0.765625 C 4.847656 -0.484375 4.578125 -0.257812 4.234375 -0.09375 C 3.890625 0.0625 3.5 0.140625 3.0625 0.140625 C 2.320312 0.140625 1.726562 -0.0351562 1.28125 -0.390625 C 0.832031 -0.753906 0.570312 -1.257812 0.5 -1.90625 L 1.40625 -1.90625 C 1.5 -1.46875 1.691406 -1.128906 1.984375 -0.890625 C 2.273438 -0.648438 2.640625 -0.53125 3.078125 -0.53125 C 3.460938 -0.53125 3.789062 -0.628906 4.0625 -0.828125 C 4.332031 -1.023438 4.46875 -1.296875 4.46875 -1.640625 C 4.46875 -2.046875 4.34375 -2.351562 4.09375 -2.5625 C 3.84375 -2.78125 3.421875 -2.957031 2.828125 -3.09375 C 2.429688 -3.1875 2.082031 -3.304688 1.78125 -3.453125 C 1.476562 -3.609375 1.238281 -3.804688 1.0625 -4.046875 C 0.894531 -4.285156 0.8125 -4.585938 0.8125 -4.953125 C 0.8125 -5.347656 0.910156 -5.6875 1.109375 -5.96875 C 1.316406 -6.25 1.585938 -6.460938 1.921875 -6.609375 C 2.265625 -6.765625 2.640625 -6.84375 3.046875 -6.84375 Z M 3.046875 -6.84375 "/></g></g></g><g fill="#000000" fill-opacity="1"><g transform="translate(107.560193, 10.77671)"><g><path d="M 5.953125 -6.703125 L 5.953125 -2.484375 C 5.953125 -2.378906 5.953125 -2.273438 5.953125 -2.171875 C 5.953125 -2.066406 5.941406 -1.96875 5.921875 -1.875 C 5.890625 -1.507812 5.78125 -1.171875 5.59375 -0.859375 C 5.414062 -0.554688 5.144531 -0.3125 4.78125 -0.125 C 4.425781 0.0507812 3.976562 0.140625 3.4375 0.140625 C 2.882812 0.140625 2.425781 0.0507812 2.0625 -0.125 C 1.707031 -0.3125 1.4375 -0.554688 1.25 -0.859375 C 1.070312 -1.171875 0.96875 -1.507812 0.9375 -1.875 C 0.925781 -1.96875 0.914062 -2.066406 0.90625 -2.171875 C 0.90625 -2.273438 0.90625 -2.378906 0.90625 -2.484375 L 0.90625 -6.703125 L 1.75 -6.703125 L 1.75 -2.5625 C 1.75 -2.457031 1.75 -2.351562 1.75 -2.25 C 1.757812 -2.144531 1.765625 -2.050781 1.765625 -1.96875 C 1.804688 -1.539062 1.960938 -1.191406 2.234375 -0.921875 C 2.515625 -0.660156 2.914062 -0.53125 3.4375 -0.53125 C 3.945312 -0.53125 4.335938 -0.660156 4.609375 -0.921875 C 4.890625 -1.191406 5.050781 -1.539062 5.09375 -1.96875 C 5.101562 -2.050781 5.109375 -2.144531 5.109375 -2.25 C 5.109375 -2.351562 5.109375 -2.457031 5.109375 -2.5625 L 5.109375 -6.703125 Z M 5.953125 -6.703125 "/></g></g></g><g fill="#000000" fill-opacity="1"><g transform="translate(113.564228, 10.77671)"><g><path d="M 3.875 -6.671875 C 4.382812 -6.597656 4.835938 -6.429688 5.234375 -6.171875 C 5.640625 -5.921875 5.953125 -5.566406 6.171875 -5.109375 C 6.398438 -4.660156 6.515625 -4.101562 6.515625 -3.4375 C 6.515625 -2.769531 6.398438 -2.191406 6.171875 -1.703125 C 5.941406 -1.222656 5.617188 -0.84375 5.203125 -0.5625 C 4.796875 -0.28125 4.332031 -0.101562 3.8125 -0.03125 C 3.644531 -0.0195312 3.503906 -0.0078125 3.390625 0 C 3.285156 0 3.144531 0 2.96875 0 L 0.96875 0 L 0.96875 -6.703125 L 3.015625 -6.703125 C 3.191406 -6.703125 3.332031 -6.703125 3.4375 -6.703125 C 3.550781 -6.703125 3.695312 -6.691406 3.875 -6.671875 Z M 3.734375 -0.734375 C 4.304688 -0.816406 4.757812 -1.085938 5.09375 -1.546875 C 5.4375 -2.015625 5.609375 -2.644531 5.609375 -3.4375 C 5.609375 -4.175781 5.445312 -4.757812 5.125 -5.1875 C 4.800781 -5.625 4.351562 -5.890625 3.78125 -5.984375 C 3.675781 -5.992188 3.554688 -6.003906 3.421875 -6.015625 C 3.296875 -6.023438 3.144531 -6.03125 2.96875 -6.03125 L 1.8125 -6.03125 L 1.8125 -0.6875 L 2.921875 -0.6875 C 3.085938 -0.6875 3.238281 -0.6875 3.375 -0.6875 C 3.507812 -0.695312 3.628906 -0.710938 3.734375 -0.734375 Z M 3.734375 -0.734375 "/></g></g></g><g clip-path="url(#9e01936a69)"><g fill="#000000" fill-opacity="1"><g transform="translate(119.830578, 10.77671)"><g><path d="M 6.34375 -6.703125 L 6.34375 0 L 5.5 0 L 5.5 -2.9375 L 1.8125 -2.9375 L 1.8125 0 L 0.96875 0 L 0.96875 -6.703125 L 1.8125 -6.703125 L 1.8125 -3.640625 L 5.5 -3.640625 L 5.5 -6.703125 Z M 6.34375 -6.703125 "/></g></g></g></g></g></g></svg>